<?xml version="1.0" encoding="utf-8"?>
<!-- Svg Vector Icons : http://www.onlinewebfonts.com/icon -->
<!DOCTYPE svg PUBLIC "-//W3C//DTD SVG 1.1//EN" "http://www.w3.org/Graphics/SVG/1.1/DTD/svg11.dtd">
<svg version="1.1" xmlns="http://www.w3.org/2000/svg" xmlns:xlink="http://www.w3.org/1999/xlink" x="0px" y="0px" viewBox="0 0 1000 1000" enable-background="new 0 0 1000 1000" xml:space="preserve">
<metadata> Svg Vector Icons : http://www.onlinewebfonts.com/icon </metadata>
<g><g transform="translate(0.000000,511.000000) scale(0.100000,-0.100000)"><path d="M767.7,4070.3c-336.9-106.8-591.7-394.5-645.1-731.4c-28.8-174.6-30.8-6266.2-2.1-6438.8c61.6-373.9,361.6-680,737.6-751.9c152-28.8,8131.7-28.8,8283.7,0c376,71.9,675.9,378,737.6,751.9c28.8,172.6,26.7,6264.1-2,6438.8c-47.3,293.8-244.5,550.6-526,684.1l-139.7,65.7l-4180.9,4.1C1694.3,4095,833.5,4090.9,767.7,4070.3z M9332.9,3906c219.8-106.8,369.8-302,421.2-542.4c30.8-145.9,32.9-6315.5,2.1-6477.8c-30.8-162.3-96.6-281.4-226-410.9c-78.1-78.1-152-129.4-236.3-164.3l-123.3-49.3H5000H829.4l-123.3,49.3c-84.2,34.9-158.2,86.3-236.3,164.3c-129.4,129.5-195.2,250.7-226,415c-14.4,76-18.5,1199.8-16.4,3297.5l6.2,3182.4l47.3,117.1c90.4,221.9,267.1,392.4,482.8,458.2c69.9,22.6,836.2,26.7,4267.2,24.7l4180.9-4.1L9332.9,3906z"/><path d="M2842.8,1457c-236.3-26.7-433.5-47.2-437.6-47.2c-4.1-2.1-4.1-59.6,0-129.4l6.2-129.4l273.2-6.2l271.2-6.2V51.7v-1088.9h174.6H3305V224.3c0,694.4-6.2,1267.6-14.4,1271.7C3280.4,1500.1,3081.1,1481.6,2842.8,1457z"/><path d="M4712.4,355.8c-236.3-614.3-472.5-1228.6-526-1366.2l-96.6-252.7h145.9h147.9L4891.1,68.2c281.5,731.4,515.7,1345.7,521.8,1366.2c10.3,30.8-2.1,34.9-129.4,34.9h-143.8L4712.4,355.8z"/><path d="M6037.5,976.2c-267.1-47.2-297.9-57.5-304.1-96.6c-6.2-39,4.1-43.1,147.9-51.4c260.9-12.3,304.1-65.7,425.3-540.3l82.2-322.5l-86.3-145.9c-219.8-373.9-449.9-671.8-519.8-671.8c-14.4,0-61.6,28.8-104.8,61.6c-98.6,78.1-197.2,82.2-267.1,10.3c-88.3-86.3-63.7-228.1,51.4-287.6c131.5-67.8,271.2-24.7,441.7,135.6c113,106.8,297.9,361.6,443.8,610.2c47.3,80.1,82.2,123.3,88.4,104.8c6.2-16.4,32.9-135.6,63.7-265c90.4-396.5,127.4-505.4,197.2-562.9c76-63.7,156.2-67.8,265-12.3c106.8,53.4,281.5,228,380.1,376c65.8,98.6,74,123.3,49.3,139.7c-45.2,28.8-53.4,24.7-98.6-51.4C7225-700.2,7073-831.7,7013.4-831.7c-74,0-98.6,59.6-223.9,579.4l-113,458.1l106.8,162.3c121.2,187,263,334.9,334.9,353.4c28.8,8.2,106.8-2.1,174.6-20.5c117.1-32.9,127.4-32.9,199.3,2.1c69.9,32.9,76,45.2,82.2,129.4c4.1,78.1-2.1,102.7-45.2,141.8c-170.5,160.3-474.6-6.2-751.9-410.9c-119.2-174.6-131.5-187-145.9-139.7c-106.8,361.6-178.7,517.7-269.2,585.5C6343.6,1023.5,6243,1013.2,6037.5,976.2z"/></g></g>
</svg>