<?xml version="1.0" encoding="utf-8"?>
<!-- Svg Vector Icons : http://www.onlinewebfonts.com/icon -->
<!DOCTYPE svg PUBLIC "-//W3C//DTD SVG 1.1//EN" "http://www.w3.org/Graphics/SVG/1.1/DTD/svg11.dtd">
<svg version="1.1" xmlns="http://www.w3.org/2000/svg" xmlns:xlink="http://www.w3.org/1999/xlink" x="0px" y="0px" viewBox="0 0 1000 1000" enable-background="new 0 0 1000 1000" xml:space="preserve">
<metadata> Svg Vector Icons : http://www.onlinewebfonts.com/icon </metadata>
<g><g transform="translate(0.000000,511.000000) scale(0.100000,-0.100000)"><path d="M363.5,4963.1c-117.1-54.7-169.8-109.3-222.5-226.5c-41-87.9-41-99.6-41-4626.7v-4538.8l46.9-97.6c54.7-117.1,109.3-169.8,226.5-222.6c87.9-41,99.6-41,4626.7-41h4538.8l97.6,46.9c117.1,54.7,169.8,109.3,222.6,226.5c41,87.8,41,99.6,41,4626.7c0,4527.1,0,4538.8-41,4626.7c-52.7,117.1-105.4,171.8-222.6,226.5l-97.6,46.9H5000H461.2L363.5,4963.1z M9427.6,4738.6c93.7-48.8,169.8-128.8,206.9-220.6c27.3-64.4,31.2-532.9,31.2-4408s-3.9-4343.6-31.2-4408c-39-95.7-117.1-175.7-212.8-220.6c-76.1-35.1-236.2-37.1-4417.8-37.1c-3879,0-4347.5,3.9-4411.9,31.2c-91.8,37.1-171.8,113.2-220.6,206.9c-37.1,70.3-37.1,181.6-37.1,4429.5c0,4808.2-9.8,4413.9,123,4542.7c136.7,130.8-271.4,121,4538.8,121C9248,4775.7,9357.3,4775.7,9427.6,4738.6z"/><path d="M7008.8,2210.6c-154.2-54.7-339.7-238.2-394.3-388.5c-25.4-66.4,41-58.6,103.5,11.7c82,95.7,205,150.3,328,150.3c130.8,0,212.8-35.1,290.9-123c111.3-126.9,128.8-324.1,50.7-527.1c-87.8-228.4-410-607.1-915.6-1073.7c-169.8-158.1-312.3-300.6-316.3-316.3c-5.9-25.4,64.4-29.3,572-25.4l579.8,5.8l85.9,205c46.9,111.3,85.9,210.8,85.9,218.6c0,37.1-52.7,9.8-103.5-52.7c-97.6-123-140.6-134.7-529.1-142.5l-347.5-7.8l466.6,466.6c613,609.1,747.7,808.2,747.7,1103c0,160.1-31.2,255.7-121,355.3c-103.5,119.1-216.7,167.9-380.7,167.9C7137.7,2235.9,7047.9,2224.2,7008.8,2210.6z"/><path d="M3291.8,1035.3c-193.3-35.1-380.7-70.3-413.9-76.1c-54.7-9.8-64.4-19.5-64.4-66.4v-54.7l201.1-9.8c292.8-13.7,410-87.9,511.5-318.2c60.5-138.6,249.9-917.5,236.2-970.2c-15.6-64.4-187.4-357.2-378.7-650.1C3204-1383.4,2965.8-1647,2899.4-1647c-21.5,0-82,31.2-130.8,70.3c-117.1,91.8-212.8,124.9-302.6,103.5c-134.7-29.3-212.8-171.8-179.6-322.1c19.5-87.9,66.4-140.6,165.9-185.5c335.8-154.2,722.3,179.6,1268.9,1101c62.5,105.4,117.1,187.4,121,181.6c5.9-3.9,39-138.6,74.2-298.7c144.5-646.2,201.1-827.7,288.9-919.5c160.1-171.8,369-125,659.8,148.4c165.9,154.2,288.9,304.6,376.8,456.8l52.7,91.8l-56.6,29.3l-58.6,29.3l-82-125c-91.8-140.6-271.4-316.3-341.6-333.8c-91.8-23.4-134.7-2-179.6,89.8c-41,80-357.3,1339.2-357.3,1417.3c0,46.9,269.4,447.1,388.5,577.9c119.1,130.8,212.8,193.3,292.8,195.2c31.2,1.9,126.9-17.6,214.8-43c136.7-39,165.9-42.9,234.3-21.5c126.9,37.1,181.5,95.7,191.3,208.9c23.4,246-247.9,376.8-519.3,251.8c-126.9-60.5-318.2-210.8-443.1-347.5c-50.8-56.6-164-210.8-253.8-343.6c-95.7-144.5-165.9-232.3-171.8-214.7c-3.9,15.6-37.1,128.8-72.2,251.8c-80,283.1-144.5,427.5-259.6,581.8c-66.4,85.9-105.4,121-134.7,119.1C3662.7,1101.7,3485.1,1072.4,3291.8,1035.3z"/></g></g>
</svg>